<?xml version="1.0" encoding="UTF-8"?>
<svg width="40px" height="40px" viewBox="0 0 40 40" version="1.1" xmlns="http://www.w3.org/2000/svg" xmlns:xlink="http://www.w3.org/1999/xlink">
    <title>已购课程</title>
    <defs>
        <linearGradient x1="100%" y1="100%" x2="0%" y2="0%" id="linearGradient-1">
            <stop stop-color="#FF7676" offset="0%"></stop>
            <stop stop-color="#E93030" offset="100%"></stop>
        </linearGradient>
    </defs>
    <g id="已购课程" stroke="none" stroke-width="1" fill="none" fill-rule="evenodd">
        <rect id="矩形" x="0" y="0" width="40" height="40"></rect>
        <g id="编组" transform="translate(4.000000, 4.000000)" fill="url(#linearGradient-1)" fill-rule="nonzero">
            <path d="M16,0 C21.3032884,0.0726085887 25.6944985,0.993628865 28.3134152,3.68658485 C31.0063711,6.30550153 31.9273914,10.6967116 32,16 C31.9273914,21.3032884 31.0063711,25.6944985 28.3134152,28.3134152 C25.6944985,31.0063711 21.3032884,31.9273914 16,32 C10.6967116,31.9273914 6.30550153,31.0063711 3.68658485,28.3134152 C0.993628865,25.6944985 0.0726085887,21.3032884 0,16 C0.0726085887,10.6967116 0.993628865,6.30550153 3.68658485,3.68658485 C6.30550153,0.993628865 10.6967116,0.0726085887 16,0 Z M10.8571429,11.1406847 L10.8571429,20.8593153 C10.8571429,22.150318 12.2311846,22.9659528 13.348283,22.3382373 L21.9960981,17.478922 C23.1441578,16.8336004 23.1441578,15.1663996 21.9960981,14.521078 L13.348283,9.66176265 C12.2311846,9.0340472 10.8571429,9.84968205 10.8571429,11.1406847 Z" id="形状结合"></path>
        </g>
    </g>
</svg>