<?xml version="1.0" encoding="UTF-8"?>
<svg width="48px" height="48px" viewBox="0 0 48 48" version="1.1" xmlns="http://www.w3.org/2000/svg" xmlns:xlink="http://www.w3.org/1999/xlink">
    <title>我的课程红</title>
    <defs>
        <linearGradient x1="50%" y1="0%" x2="50%" y2="100%" id="linearGradient-1">
            <stop stop-color="#FF2855" offset="0%"></stop>
            <stop stop-color="#FF2641" offset="100%"></stop>
        </linearGradient>
    </defs>
    <g id="页面-1" stroke="none" stroke-width="1" fill="none" fill-rule="evenodd">
        <g id="1.01同顺会员我的课程" transform="translate(-538.000000, -1470.000000)">
            <g id="tabbar_浅色/_浅色" transform="translate(0.000000, 1458.000000)">
                <g id="我的课程红" transform="translate(538.000000, 12.000000)">
                    <g id="图标背景颜色/红色-45度-8圆角-推荐"></g>
                    <g id="path-3-link" transform="translate(2.000000, 5.000000)">
                        <rect id="矩形" fill="url(#linearGradient-1)" x="0" y="0" width="44" height="38" rx="8"></rect>
                        <g id="编组-8" transform="translate(12.000000, 9.500000)" fill="#FFFFFF" fill-rule="nonzero">
                            <path d="M5.513125,0.14358966 C6.21479167,-0.256290259 7.10525,0.226422213 7.10525,1.00664757 L7.10525,12.5207703 C7.10525,13.2841665 7.9615,13.7689081 8.66295833,13.4026068 L13.8375417,10.7005627 C14.567625,10.3193022 14.567625,9.31811049 13.8375417,8.93685 L9.49491667,6.66925913 C9.15733333,6.49293162 8.947375,6.15479816 8.947375,5.78738287 L8.947375,2.08641486 C8.947375,1.30316583 9.844,0.820890996 10.5455417,1.22681825 L19.2393333,6.25716519 C19.7115417,6.53040917 20,7.01932812 20,7.54652032 L20,12.0947118 C20,12.6217051 19.7118333,13.1104251 19.2399583,13.3837088 L8.281125,19.73134 C7.797875,20.0112679 7.19483333,20.0232034 6.69991667,19.7626509 L3.18508333,17.9124454 C2.68129167,17.6472778 2.5,17.195717 2.5,16.6464441 L2.5,6.50486715 C2.5,6.1399981 2.105625,5.89675208 1.75729167,6.04674186 L0.742666667,6.48362191 C0.394333333,6.63361169 0,6.39036566 0,6.02549662 L0,3.57087605 C0,3.39395177 0.0974583333,3.23003721 0.256541667,3.13936699 L5.513125,0.14358966 Z" id="路径"></path>
                            <path d="M13.8375,8.93692957 C14.5675833,9.31815028 14.5675833,10.3193818 13.8375,10.7006025 L19.9999583,7.54659989 C19.9999583,7.0193679 19.7115417,6.53044896 19.2392917,6.25720497 L10.5455,1.22685803 C9.84395833,0.820970566 8.94733333,1.3032454 8.94733333,2.08645464 L8.94733333,5.78746244 C8.94733333,6.15487773 9.15729167,6.49301119 9.49491667,6.66929891 L13.8375,8.93692957 Z" id="路径"></path>
                            <path d="M6.77575,19.7937231 L3.18508333,17.9124454 C2.68129167,17.6472778 2.5,17.195717 2.5,16.6464441 L2.5,6.50486715 C2.5,6.1399981 2.105625,5.89675208 1.75729167,6.04674186 L0.742666667,6.48362191 C0.394333333,6.63361169 0,6.39036566 0,6.02549662 L0,3.57087605 C0,3.39395177 0.0974583333,3.23003721 0.256541667,3.13936699 L5.513125,0.14358966 C6.21479167,-0.256290259 7.10525,0.226422213 7.10525,1.00664757 L7.10525,12.5207703 L7.08429167,19.619902 C7.083875,19.7708466 6.914375,19.8663308 6.77575,19.7937231 Z" id="路径"></path>
                        </g>
                    </g>
                </g>
            </g>
        </g>
    </g>
</svg>