<?xml version="1.0" encoding="UTF-8"?>
<svg width="48px" height="48px" viewBox="0 0 48 48" version="1.1" xmlns="http://www.w3.org/2000/svg" xmlns:xlink="http://www.w3.org/1999/xlink">
    <title>同顺会员首页黑</title>
    <g id="页面-1" stroke="none" stroke-width="1" fill="none" fill-rule="evenodd">
        <g id="1.01同顺会员我的课程" transform="translate(-164.000000, -1470.000000)">
            <g id="tabbar_浅色/_浅色" transform="translate(0.000000, 1458.000000)">
                <g id="同顺会员首页黑" transform="translate(164.000000, 12.000000)">
                    <g id="图标背景颜色/红色-45度-8圆角-推荐"></g>
                    <g id="path-3-link" transform="translate(2.000000, 3.000000)">
                        <path d="M21,1.5 C26.3847763,1.5 31.2597763,3.68261184 34.7885822,7.21141777 C38.3173882,10.7402237 40.5,15.6152237 40.5,21 C40.5,25.3730819 39.0607826,29.4101193 36.6294987,32.6626862 C36.4121491,32.9534564 35.9617816,33.5172146 35.2813545,34.3562214 L35.2813545,34.3562214 L40.2323833,39.3076793 L39.3076964,40.2323663 L34.3626509,35.2871864 C33.4417542,36.0206236 32.8998862,36.4507376 32.7351636,36.5750601 C29.4701768,39.0392704 25.4056233,40.5 21,40.5 C15.6152237,40.5 10.7402237,38.3173882 7.21141777,34.7885822 C3.68261184,31.2597763 1.5,26.3847763 1.5,21 C1.5,15.6152237 3.68261184,10.7402237 7.21141777,7.21141777 C10.7402237,3.68261184 15.6152237,1.5 21,1.5 Z" id="path-3-path" stroke="#1F1F1F" stroke-width="3"></path>
                        <path d="M21.0026695,25.6926264 C20.7641997,25.6926264 20.5354977,25.7869003 20.3668791,25.9547074 L20.3668791,25.9547074 L17.6485897,28.6597546 C17.0819621,29.223306 17.4832968,30.1875 18.28438,30.1875 L18.28438,30.1875 L23.7222279,30.1875 C24.522042,30.1875 24.9233768,29.223306 24.3567492,28.6597546 L24.3567492,28.6597546 L21.6384598,25.9547074 C21.4698413,25.7869003 21.2411393,25.6926264 21.0026695,25.6926264 Z" id="path-3-path" fill="#1F1F1F"></path>
                        <path d="M21.5272961,11.9802492 C21.1758352,11.7286253 20.6829952,11.7600784 20.3668791,12.0746081 L20.3668791,12.0746081 L15.6308117,16.7872876 L12.9267991,19.472129 L12.7556428,19.6538453 C11.4434442,21.1409679 11.5004963,23.4069454 12.9267991,24.8263416 C13.6402408,25.5363216 14.6078836,25.9352124 15.6168523,25.9352124 C16.625821,25.9352124 17.5934639,25.5363216 18.3069055,24.8263416 L18.3069055,24.8263416 L20.3640237,22.7792448 L20.4755048,22.6848859 C20.8269656,22.4332621 21.3198057,22.4647151 21.6359217,22.7792448 L21.6359217,22.7792448 L23.69304,24.8263416 L23.8756458,24.9966642 C25.3700485,26.3024703 27.647119,26.2456962 29.0734636,24.8263416 C30.5588455,23.3476596 30.5588455,20.950811 29.0734636,19.472129 L29.0734636,19.472129 L26.3830931,16.7951805 L21.6387771,12.0746081 L21.5272961,11.9802492 Z" id="path-3-path" fill="#1F1F1F"></path>
                    </g>
                </g>
            </g>
        </g>
    </g>
</svg>