<?xml version="1.0" encoding="UTF-8"?>
<svg width="48px" height="48px" viewBox="0 0 48 48" version="1.1" xmlns="http://www.w3.org/2000/svg" xmlns:xlink="http://www.w3.org/1999/xlink">
    <title>同顺会员首页红</title>
    <defs>
        <linearGradient x1="50%" y1="0%" x2="50%" y2="100%" id="linearGradient-1">
            <stop stop-color="#FF2855" offset="0%"></stop>
            <stop stop-color="#FF2540" offset="100%"></stop>
        </linearGradient>
        <linearGradient x1="50%" y1="0%" x2="50%" y2="100%" id="linearGradient-2">
            <stop stop-color="#FFFFFF" offset="0%"></stop>
            <stop stop-color="#FFFFFF" stop-opacity="0.84" offset="100%"></stop>
        </linearGradient>
        <linearGradient x1="50%" y1="0%" x2="50%" y2="100%" id="linearGradient-3">
            <stop stop-color="#FFFFFF" offset="0%"></stop>
            <stop stop-color="#FFFFFF" stop-opacity="0.84" offset="100%"></stop>
        </linearGradient>
    </defs>
    <g id="页面-1" stroke="none" stroke-width="1" fill="none" fill-rule="evenodd">
        <g id="1.00同顺会员首页tab" transform="translate(-164.000000, -1470.000000)">
            <g id="tabbar_浅色/_浅色" transform="translate(0.000000, 1458.000000)">
                <g id="同顺会员首页红" transform="translate(164.000000, 12.000000)">
                    <g id="图标背景颜色/红色-45度-8圆角-推荐"></g>
                    <g id="path-3-link" transform="translate(2.000000, 3.000000)">
                        <path d="M21,0 C32.5979798,0 42,9.40202025 42,21 C42,25.7099423 40.4494432,30.0577327 37.8309411,33.5607597 C37.7148648,33.7160465 37.5360757,33.9451942 37.2945738,34.2482029 L41.5921912,38.5461927 C42.0127558,38.9667574 42.0127558,39.6486272 41.5921912,40.0691919 L40.0691919,41.5921912 C39.6486272,42.0127558 38.9667574,42.0127558 38.5461927,41.5921912 L34.2484726,37.2943543 C33.9336719,37.5438308 33.7304444,37.7031566 33.6387902,37.7723316 C30.1223941,40.4262901 25.7449769,42 21,42 C9.40202025,42 0,32.5979798 0,21 C0,9.40202025 9.40202025,0 21,0 Z" id="path-3-path" fill="url(#linearGradient-1)"></path>
                        <path d="M21.0025424,25.469168 C20.7754282,25.469168 20.5576169,25.5589526 20.3970277,25.718769 L20.3970277,25.718769 L17.8081806,28.2950044 C17.2685354,28.83172 17.6507589,29.75 18.4136952,29.75 L18.4136952,29.75 L23.592598,29.75 C24.3543257,29.75 24.7365494,28.83172 24.196904,28.2950044 L24.196904,28.2950044 L21.608057,25.718769 C21.4474679,25.5589526 21.2296565,25.469168 21.0025424,25.469168 Z" id="path-3-path" fill="url(#linearGradient-2)"></path>
                        <path d="M21.5021867,12.4097611 C21.1674621,12.1701194 20.6980906,12.2000746 20.3970277,12.4996268 L20.3970277,12.4996268 L15.8864874,16.987893 L13.3112372,19.5448848 L13.1482312,19.7179479 C11.8985182,21.1342551 11.9528536,23.292329 13.3112372,24.6441349 C13.9907055,25.3203062 14.9122701,25.7002023 15.8731926,25.7002023 C16.8341152,25.7002023 17.7556799,25.3203062 18.4351481,24.6441349 L18.4351481,24.6441349 L20.3943082,22.6945189 L20.5004807,22.6046532 C20.8352054,22.3650115 21.3045769,22.3949668 21.6056397,22.6945189 L21.6056397,22.6945189 L23.5648,24.6441349 L23.7387102,24.8063469 C25.161951,26.0499718 27.3305895,25.9959011 28.689013,24.6441349 C30.1036624,23.2358662 30.1036624,20.9531534 28.689013,19.5448848 L28.689013,19.5448848 L26.1267554,16.99541 L21.6083591,12.4996268 L21.5021867,12.4097611 Z" id="path-3-path" fill="url(#linearGradient-3)"></path>
                    </g>
                </g>
            </g>
        </g>
    </g>
</svg>