<?xml version="1.0" encoding="UTF-8"?>
<svg width="32px" height="32px" viewBox="0 0 32 32" version="1.1" xmlns="http://www.w3.org/2000/svg" xmlns:xlink="http://www.w3.org/1999/xlink">
    <title>02@2x</title>
    <g id="页面-1" stroke="none" stroke-width="1" fill="none" fill-rule="evenodd">
        <g id="2.01题材速递首页" transform="translate(-36.000000, -1229.000000)">
            <g id="02" transform="translate(36.000000, 1229.000000)">
                <g id="0-元素/Label-bg-solid-2px/橙" fill="#FF661A">
                    <rect id="标签/bg" x="0" y="0" width="32" height="32" rx="4"></rect>
                </g>
                <g id="2" transform="translate(10.432000, 6.952000)" fill="#FFFFFF" fill-rule="nonzero">
                    <path d="M5.472,0 C2.496,0 0.144,2.4 0.096,5.352 L0.072,5.616 L3.048,5.616 L3.048,5.376 C3.096,4.032 4.152,2.976 5.472,2.976 C6.792,2.976 7.872,4.08 7.872,5.424 C7.872,5.688 7.848,5.88 7.8,6.096 C7.68,6.552 7.344,6.936 6.648,7.752 L0,15.576 L0,18.384 L11.16,18.384 L11.16,15.408 L3.984,15.408 L9.84,8.592 C10.464,7.68 10.848,6.6 10.848,5.424 C10.848,2.424 8.448,0 5.472,0 Z" id="路径"></path>
                </g>
            </g>
        </g>
    </g>
</svg>