<?xml version="1.0" encoding="UTF-8"?>
<svg width="14" height="14" viewBox="0 0 16 16" fill="none" xmlns="http://www.w3.org/2000/svg" class="pc-icon"
    style="fill: rgb(255, 255, 255);">
    <path d="M14.6852 7.7778C14.8909 7.97704 15.0049 8.25268 14.9998 8.53906C14.9998 8.83712 14.8949 9.08845 14.6852 
        9.30031C14.4872 9.50671 14.2119 9.62083 13.926 9.61499C13.63 9.61499 13.3776 9.50906 13.1647 9.30031C12.959 
        9.10107 12.845 8.82543 12.85 8.53906C12.85 8.24099 12.9549 7.98966 13.1647 7.7778C13.364 7.57204 13.6396 7.4581 
        13.926 7.46312C14.2209 7.46312 14.4764 7.56905 14.6852 7.7778M13.2665 12.7317C13.2688 13.0177 13.1531 13.2919 
        12.9466 13.4898C12.7489 13.6965 12.4745 13.8122 12.1885 13.8097C11.8904 13.8097 11.6401 13.7038 11.4272 13.495C11.2215 
        13.2958 11.1075 13.0201 11.1126 12.7338C11.1126 12.4357 11.2185 12.1854 11.4272 11.9725C11.6265 11.7667 11.9021 
        11.6528 12.1885 11.6578C12.4866 11.6578 12.7379 11.7637 12.9497 11.9725C13.1564 12.1705 13.2712 12.4456 13.2665 
        12.7317M14.0745 4.35163C14.0745 4.87298 13.8896 5.31852 13.5189 5.68513C13.1701 6.04317 12.6893 6.24187 12.1895 
        6.23452C11.6692 6.23452 11.2237 6.0507 10.856 5.68513C10.4971 5.33532 10.2987 4.85275 10.3077 4.35163C10.3077 3.83547 
        10.4915 3.39201 10.856 3.02229C11.2048 2.66042 11.688 2.45926 12.1906 2.46667C12.7067 2.46667 13.1502 2.65257 13.5189 
        3.02333C13.8896 3.38994 14.0745 3.8334 14.0745 4.35163M8.76128 13.7027C8.96667 13.9021 9.08022 14.1778 9.07493 14.464C9.07493 
        14.762 8.97003 15.0134 8.76128 15.2252C8.56179 15.4313 8.28572 15.5452 7.99899 15.5399C7.70093 15.5399 7.45064 15.434 7.23773 
        15.2252C7.03133 15.0264 6.91727 14.7505 6.92305 14.464C6.92305 14.1659 7.02899 13.9156 7.23773 13.7027C7.43698 13.497 
        7.71261 13.383 7.99899 13.388C8.29705 13.388 8.54942 13.494 8.76128 13.7027M9.14555 1.4707C9.45919 1.78538 9.61705 2.16549 
        9.61705 2.61622C9.61705 3.06695 9.45919 3.44498 9.14555 3.7607C8.84551 4.06901 8.4312 4.23933 8.00107 4.23116C7.55034 4.23116 
        7.17231 4.0733 6.85659 3.7607C6.54757 3.46105 6.37682 3.04658 6.38509 2.61622C6.38509 2.16549 6.54398 1.78746 6.85659 
        1.4707C7.15659 1.16296 7.57033 0.992734 8.00003 1.00024C8.44868 1.00024 8.82879 1.1581 9.14451 1.4707M4.57282 11.9704C4.7782 
        12.1698 4.89176 12.4455 4.88646 12.7317C4.88646 13.0297 4.78157 13.2811 4.57282 13.494C4.37315 13.6996 4.0971 13.8132 
        3.81053 13.8076C3.52455 13.8099 3.25028 13.6942 3.05239 13.4877C2.8461 13.2898 2.73073 13.0155 2.73355 12.7296C2.73355 
        12.4315 2.83845 12.1812 3.04719 11.9683C3.24686 11.7627 3.52291 11.6491 3.80949 11.6547C4.10755 11.6547 4.362 11.7596 
        4.57282 11.9704M4.75976 3.39928C5.02355 3.66307 5.15545 3.98087 5.15545 4.34955C5.15545 4.71928 5.02355 5.035 4.75976 
        5.30086C4.49597 5.56569 4.17817 5.69863 3.80845 5.69863C3.43976 5.69863 3.12301 5.56777 2.85818 5.3019C2.60055 5.05349 
        2.45731 4.70948 2.46249 4.35163C2.46249 3.98295 2.59335 3.66619 2.85818 3.40136C3.12405 3.13549 3.43976 3.00464 3.80845 
        3.00464C4.17817 3.00464 4.49389 3.13549 4.75976 3.39928M2.83741 7.7778C3.04317 7.97704 3.15711 8.25268 3.15209 8.53906C3.15209 
        8.83712 3.04616 9.08845 2.83741 9.30031C2.63882 9.50703 2.36274 9.62116 2.07615 9.61499C1.77809 9.61499 1.52676 9.50906 1.3149 
        9.30031C1.10844 9.10197 0.994344 8.82633 1.00022 8.5401C1.00022 8.24203 1.10615 7.9907 1.3149 7.77884C1.51414 7.57308 1.78978 
        7.45914 2.07615 7.46416C2.37421 7.46416 2.62658 7.57009 2.83741 7.77884"></path>
    <style>
        .pc-icon {
            animation: loading 2s;
            animation-iteration-count: infinite;
            animation-timing-function: linear;
        }

        @keyframes loading {
            from {
                transform: rotate(0deg);
            }

            to {
                transform: rotate(360deg);
            }
        }
    </style>
</svg>